<svg width="24" height="23" viewBox="0 0 24 23" fill="none" xmlns="http://www.w3.org/2000/svg">
<path d="M6.62866 10.5337V10.5336C6.56922 10.4657 6.49399 10.4128 6.40931 10.3793C6.32463 10.3459 6.23299 10.3329 6.14211 10.3414C6.0654 10.3551 5.99339 10.3874 5.93259 10.4352C5.87179 10.483 5.82411 10.5449 5.79386 10.6153L0.0532886 21.8583C0.0148676 21.9335 -0.00330633 22.017 0.000494074 22.1009C0.00429448 22.1849 0.029943 22.2665 0.0750017 22.338C0.12006 22.4095 0.183032 22.4685 0.257932 22.5094C0.332831 22.5503 0.41717 22.5718 0.502931 22.5718H8.49607C8.58968 22.5737 8.68182 22.5488 8.76131 22.5003C8.8408 22.4519 8.90422 22.3818 8.94386 22.2987C10.6232 18.9033 9.58394 13.627 6.62866 10.5337Z" fill="#B9B9B9"/>
<path d="M23.0001 21.8624C22.8925 21.6513 12.2448 0.776521 11.9829 0.257487C11.9487 0.184769 11.895 0.122478 11.8276 0.0772097C11.7601 0.0319418 11.6815 0.00538149 11.5999 0.000341178L11.5818 0C11.4885 0.00470911 11.398 0.032618 11.3188 0.0810943C11.2396 0.129571 11.1743 0.197017 11.1291 0.277071L11.1286 0.277548C8.24233 4.75749 7.9153 10.1666 10.254 14.7469L14.1072 22.2972C14.148 22.3805 14.2119 22.4509 14.2917 22.5002C14.3716 22.5495 14.4639 22.5757 14.5583 22.5757H22.5502C22.636 22.5758 22.7204 22.5544 22.7953 22.5135C22.8703 22.4726 22.9333 22.4136 22.9784 22.3421C23.0235 22.2706 23.0491 22.189 23.0529 22.105C23.0567 22.0211 23.0386 21.9375 23.0001 21.8624Z" fill="#B9B9B9"/>
</svg>
