<svg width="29" height="38" viewBox="0 0 29 38" fill="none" xmlns="http://www.w3.org/2000/svg">
<path fill-rule="evenodd" clip-rule="evenodd" d="M22.6027 4.81498C23.8466 4.81498 24.8549 3.81534 24.8549 2.58239C24.8549 1.34946 23.8466 0.350098 22.6027 0.350098C21.3587 0.350098 20.3499 1.34946 20.3499 2.58239C20.3499 3.36842 20.7603 4.05997 21.3799 4.45766C15.0814 15.6874 9.83691 16.5949 0.660707 5.18365C0.578404 5.0821 0.429671 5.05163 0.317974 5.11904C0.243901 5.16344 0.200986 5.23912 0.195107 5.31876C0.189816 5.37877 0.205102 5.44111 0.243314 5.49372C9.92333 18.9691 10.306 25.8933 8.44951 37.6922C8.42953 37.8149 8.52535 37.9284 8.65057 37.9284C8.74698 37.9284 8.83046 37.8592 8.85103 37.7662C11.8915 24.0837 16.6181 20.5329 28.4256 19.1298C28.5291 19.1176 28.6096 19.0306 28.6096 18.9273C28.6096 18.8001 28.4868 18.7054 28.3604 18.7278C15.8068 20.9647 15.5246 16.6688 21.7979 4.66816C22.0477 4.76289 22.3187 4.81498 22.6027 4.81498Z" fill="white"/>
</svg>
